<svg width="657" height="82" viewBox="0 0 657 82" fill="none" xmlns="http://www.w3.org/2000/svg">
<path d="M32.0263 82V21.0424H0V2.7417H90.5616V21.0424H58.1317V82H32.0263Z" fill="#222222"/>
<path d="M99.9664 82V13.6414L98.6208 2.7417H160.924C166.934 2.7417 171.734 3.41452 175.322 4.76017C179 6.0161 181.737 7.76543 183.531 10.0082C185.415 12.1612 186.626 14.7179 187.164 17.6783C187.792 20.549 188.106 23.5991 188.106 26.8287V37.4592C188.106 41.7653 187.388 45.7574 185.953 49.4354C184.607 53.0238 182.051 55.9394 178.283 58.1821C174.605 60.3351 169.267 61.4117 162.27 61.4117H152.985C147.333 61.4117 142.04 61.2771 137.106 61.008C132.262 60.7388 128.629 60.5146 126.206 60.3351V82H99.9664ZM126.206 43.1109H154.061C157.022 43.1109 159.085 42.5278 160.251 41.3616C161.417 40.1954 162 38.3115 162 35.7099V28.8471C162 26.2456 161.462 24.3617 160.386 23.1954C159.309 21.9395 157.246 21.3115 154.196 21.3115H126.206V43.1109Z" fill="#222222"/>
<path d="M183.816 82L223.243 2.87627H258.23L297.522 82H268.591L261.997 67.6016H219.475L212.074 82H183.816ZM226.876 49.0318H254.462L241.409 20.3696H240.063L226.876 49.0318Z" fill="#222222"/>
<path d="M316.182 80.8515V1.14847H324.582L328.146 13.6667V80.8515H316.182ZM377.278 80.8515L323.055 15.5042L324.582 1.14847L378.932 66.381L377.278 80.8515ZM377.278 80.8515L373.714 69.0224V1.14847H385.678V80.8515H377.278Z" fill="#222222"/>
<path d="M406.548 80.8515V1.14847H418.512V80.8515H406.548ZM414.694 80.8515V70.9748H465.352V80.8515H414.694ZM414.694 44.7899V35.3726H461.152V44.7899H414.694ZM414.694 11.0252V1.14847H464.716V11.0252H414.694Z" fill="#222222"/>
<path d="M504.154 80.8515L475.261 1.14847H487.225L510.136 66.1513H506.699L529.229 1.14847H537.884L560.413 66.1513H557.104L580.015 1.14847H591.852L563.086 80.8515H554.558L531.902 15.9636H535.211L512.682 80.8515H504.154Z" fill="#222222"/>
<path d="M626.885 82C619.927 82 613.987 80.8515 609.066 78.5546C604.144 76.2577 599.774 72.9272 595.956 68.563L604.102 61.2129C606.902 64.7348 610.127 67.4146 613.775 69.2521C617.424 71.0131 621.921 71.8936 627.267 71.8936C632.528 71.8936 636.729 70.8599 639.868 68.7927C643.093 66.7255 644.705 63.8926 644.705 60.2941C644.705 57.3081 643.941 54.8964 642.414 53.0588C640.887 51.2213 638.808 49.7283 636.177 48.5798C633.632 47.3548 630.831 46.2829 627.776 45.3641C624.722 44.3688 621.667 43.3352 618.612 42.2633C615.557 41.1148 612.757 39.7367 610.211 38.1289C607.666 36.4444 605.587 34.2624 603.975 31.5826C602.447 28.9029 601.683 25.5341 601.683 21.4762C601.683 16.9589 602.871 13.1307 605.247 9.9916C607.708 6.77591 611.018 4.32586 615.175 2.64146C619.418 0.880486 624.17 0 629.431 0C635.201 0 640.378 1.03361 644.96 3.10084C649.542 5.09151 653.276 7.73296 656.161 11.0252L648.014 18.3754C645.384 15.619 642.541 13.5518 639.487 12.1737C636.517 10.7955 633.08 10.1064 629.177 10.1064C624.425 10.1064 620.649 11.0635 617.848 12.9776C615.048 14.8151 613.648 17.4183 613.648 20.7871C613.648 23.4669 614.412 25.6489 615.939 27.3333C617.551 28.9412 619.63 30.3193 622.176 31.4678C624.722 32.6162 627.522 33.6881 630.577 34.6835C633.716 35.6022 636.814 36.6359 639.868 37.7843C642.923 38.9328 645.723 40.3875 648.269 42.1485C650.815 43.9094 652.851 46.2064 654.379 49.0392C655.991 51.7955 656.797 55.2792 656.797 59.4902C656.797 66.5341 654.082 72.0467 648.651 76.028C643.305 80.0093 636.05 82 626.885 82Z" fill="#222222"/>
</svg>
