<svg width="497" height="62" viewBox="0 0 497 62" fill="none" xmlns="http://www.w3.org/2000/svg">
<path d="M24.215 62V15.9101H0V2.073H68.4734V15.9101H43.9532V62H24.215Z" fill="#FCFCFC"/>
<path d="M75.5844 62V10.3142L74.5669 2.073H121.674C126.219 2.073 129.848 2.58172 132.561 3.59916C135.342 4.54876 137.411 5.87143 138.767 7.56715C140.192 9.19505 141.107 11.1282 141.514 13.3665C141.989 15.5371 142.226 17.8433 142.226 20.2851V28.3228C142.226 31.5786 141.684 34.597 140.599 37.378C139.581 40.0912 137.648 42.2956 134.799 43.9914C132.018 45.6193 127.982 46.4332 122.692 46.4332H115.671C111.398 46.4332 107.396 46.3315 103.666 46.128C100.003 45.9245 97.2557 45.7549 95.4244 45.6193V62H75.5844ZM95.4244 32.5961H116.485C118.724 32.5961 120.284 32.1552 121.165 31.2734C122.047 30.3916 122.488 28.9672 122.488 27.0002V21.8113C122.488 19.8442 122.081 18.4198 121.267 17.538C120.453 16.5884 118.893 16.1136 116.587 16.1136H95.4244V32.5961Z" fill="#FCFCFC"/>
<path d="M138.983 62L168.793 2.17475H195.247L224.956 62H203.081L198.096 51.1134H165.945L160.349 62H138.983ZM171.54 37.0728H192.398L182.529 15.4014H181.511L171.54 37.0728Z" fill="#FCFCFC"/>
<path d="M239.064 61.1317V0.868352H245.416L248.11 10.3333V61.1317H239.064ZM285.258 61.1317L244.261 11.7227L245.416 0.868352L286.509 50.1905L285.258 61.1317ZM285.258 61.1317L282.564 52.1877V0.868352H291.61V61.1317H285.258Z" fill="#FCFCFC"/>
<path d="M307.389 61.1317V0.868352H316.436V61.1317H307.389ZM313.549 61.1317V53.6639H351.852V61.1317H313.549ZM313.549 33.8656V26.7451H348.676V33.8656H313.549ZM313.549 8.33614V0.868352H351.37V8.33614H313.549Z" fill="#FCFCFC"/>
<path d="M381.189 61.1317L359.343 0.868352H368.39L385.712 50.0168H383.114L400.148 0.868352H406.692L423.727 50.0168H421.224L438.547 0.868352H447.498L425.748 61.1317H419.3L402.169 12.07H404.671L387.637 61.1317H381.189Z" fill="#FCFCFC"/>
<path d="M473.986 62C468.725 62 464.234 61.1317 460.513 59.395C456.792 57.6583 453.488 55.1401 450.6 51.8403L456.76 46.2829C458.877 48.9459 461.315 50.972 464.074 52.3613C466.833 53.6928 470.233 54.3585 474.275 54.3585C478.253 54.3585 481.429 53.577 483.803 52.014C486.241 50.451 487.46 48.3091 487.46 45.5882C487.46 43.3305 486.882 41.507 485.727 40.1176C484.573 38.7283 483.001 37.5994 481.012 36.7311C479.087 35.8049 476.97 34.9944 474.66 34.2997C472.35 33.5472 470.041 32.7656 467.731 31.9552C465.421 31.0868 463.304 30.0448 461.379 28.8291C459.454 27.5556 457.883 25.9057 456.663 23.8796C455.509 21.8534 454.931 19.3063 454.931 16.2381C454.931 12.8226 455.829 9.92811 457.626 7.55462C459.486 5.12325 461.989 3.27078 465.132 1.9972C468.34 0.665733 471.933 0 475.911 0C480.274 0 484.188 0.781513 487.652 2.34454C491.117 3.84968 493.94 5.84687 496.121 8.33614L489.962 13.8936C487.973 11.8095 485.824 10.2465 483.514 9.20448C481.268 8.16247 478.67 7.64146 475.719 7.64146C472.126 7.64146 469.271 8.36508 467.153 9.81233C465.036 11.2017 463.978 13.1699 463.978 15.7171C463.978 17.7432 464.555 19.3931 465.71 20.6667C466.929 21.8824 468.501 22.9244 470.426 23.7927C472.35 24.6611 474.468 25.4715 476.777 26.2241C479.151 26.9188 481.493 27.7003 483.803 28.5686C486.112 29.437 488.23 30.5369 490.154 31.8684C492.079 33.1998 493.619 34.9365 494.774 37.0784C495.993 39.1625 496.602 41.7965 496.602 44.9804C496.602 50.3063 494.549 54.4743 490.443 57.4846C486.401 60.4949 480.916 62 473.986 62Z" fill="#FCFCFC"/>
</svg>
