<svg width="450" height="464" viewBox="0 0 450 464" fill="none" xmlns="http://www.w3.org/2000/svg">
<rect x="-10.4363" width="307.364" height="307.364" transform="matrix(0.695751 -0.718283 0.695751 0.718283 18.4105 224.504)" stroke="#FCFCFC" stroke-width="15"/>
<mask id="path-2-outside-1_827_7" maskUnits="userSpaceOnUse" x="83" y="192.93" width="286" height="78" fill="black">
<rect fill="white" x="83" y="192.93" width="286" height="78"/>
<path d="M114.704 269.93V211.946H84.2404V194.538H170.384V211.946H139.536V269.93H114.704ZM179.33 269.93V204.906L178.05 194.538H237.314C243.032 194.538 247.597 195.178 251.01 196.458C254.509 197.652 257.112 199.316 258.818 201.45C260.61 203.498 261.762 205.93 262.274 208.746C262.872 211.476 263.17 214.378 263.17 217.45V227.562C263.17 231.658 262.488 235.455 261.122 238.954C259.842 242.367 257.41 245.14 253.826 247.274C250.328 249.322 245.25 250.346 238.594 250.346H229.762C224.386 250.346 219.352 250.218 214.658 249.962C210.05 249.706 206.594 249.492 204.29 249.322V269.93H179.33ZM204.29 232.938H230.786C233.602 232.938 235.565 232.383 236.674 231.274C237.784 230.164 238.338 228.372 238.338 225.898V219.37C238.338 216.895 237.826 215.103 236.802 213.994C235.778 212.799 233.816 212.202 230.914 212.202H204.29V232.938ZM259.089 269.93L296.593 194.666H329.873L367.249 269.93H339.729L333.457 256.234H293.009L285.969 269.93H259.089ZM300.049 238.57H326.289L313.873 211.306H312.593L300.049 238.57Z"/>
</mask>
<path d="M114.704 269.93V211.946H84.2404V194.538H170.384V211.946H139.536V269.93H114.704ZM179.33 269.93V204.906L178.05 194.538H237.314C243.032 194.538 247.597 195.178 251.01 196.458C254.509 197.652 257.112 199.316 258.818 201.45C260.61 203.498 261.762 205.93 262.274 208.746C262.872 211.476 263.17 214.378 263.17 217.45V227.562C263.17 231.658 262.488 235.455 261.122 238.954C259.842 242.367 257.41 245.14 253.826 247.274C250.328 249.322 245.25 250.346 238.594 250.346H229.762C224.386 250.346 219.352 250.218 214.658 249.962C210.05 249.706 206.594 249.492 204.29 249.322V269.93H179.33ZM204.29 232.938H230.786C233.602 232.938 235.565 232.383 236.674 231.274C237.784 230.164 238.338 228.372 238.338 225.898V219.37C238.338 216.895 237.826 215.103 236.802 213.994C235.778 212.799 233.816 212.202 230.914 212.202H204.29V232.938ZM259.089 269.93L296.593 194.666H329.873L367.249 269.93H339.729L333.457 256.234H293.009L285.969 269.93H259.089ZM300.049 238.57H326.289L313.873 211.306H312.593L300.049 238.57Z" fill="#FCFCFC"/>
<path d="M114.704 269.93H113.704V270.93H114.704V269.93ZM114.704 211.946H115.704V210.946H114.704V211.946ZM84.2404 211.946H83.2404V212.946H84.2404V211.946ZM84.2404 194.538V193.538H83.2404V194.538H84.2404ZM170.384 194.538H171.384V193.538H170.384V194.538ZM170.384 211.946V212.946H171.384V211.946H170.384ZM139.536 211.946V210.946H138.536V211.946H139.536ZM139.536 269.93V270.93H140.536V269.93H139.536ZM115.704 269.93V211.946H113.704V269.93H115.704ZM114.704 210.946H84.2404V212.946H114.704V210.946ZM85.2404 211.946V194.538H83.2404V211.946H85.2404ZM84.2404 195.538H170.384V193.538H84.2404V195.538ZM169.384 194.538V211.946H171.384V194.538H169.384ZM170.384 210.946H139.536V212.946H170.384V210.946ZM138.536 211.946V269.93H140.536V211.946H138.536ZM139.536 268.93H114.704V270.93H139.536V268.93ZM179.33 269.93H178.33V270.93H179.33V269.93ZM179.33 204.906H180.33V204.844L180.323 204.783L179.33 204.906ZM178.05 194.538V193.538H176.919L177.058 194.66L178.05 194.538ZM251.01 196.458L250.659 197.394L250.673 197.399L250.687 197.404L251.01 196.458ZM258.818 201.45L258.038 202.075L258.051 202.092L258.066 202.108L258.818 201.45ZM262.274 208.746L261.291 208.925L261.294 208.942L261.298 208.96L262.274 208.746ZM261.122 238.954L260.191 238.59L260.186 238.603L261.122 238.954ZM253.826 247.274L254.332 248.137L254.338 248.133L253.826 247.274ZM214.658 249.962L214.603 250.96L214.604 250.96L214.658 249.962ZM204.29 249.322L204.364 248.325L203.29 248.245V249.322H204.29ZM204.29 269.93V270.93H205.29V269.93H204.29ZM204.29 232.938H203.29V233.938H204.29V232.938ZM236.674 231.274L237.382 231.981H237.382L236.674 231.274ZM236.802 213.994L236.043 214.645L236.055 214.659L236.068 214.672L236.802 213.994ZM204.29 212.202V211.202H203.29V212.202H204.29ZM180.33 269.93V204.906H178.33V269.93H180.33ZM180.323 204.783L179.043 194.415L177.058 194.66L178.338 205.028L180.323 204.783ZM178.05 195.538H237.314V193.538H178.05V195.538ZM237.314 195.538C242.972 195.538 247.403 196.173 250.659 197.394L251.362 195.521C247.791 194.182 243.091 193.538 237.314 193.538V195.538ZM250.687 197.404C254.068 198.558 256.485 200.134 258.038 202.075L259.599 200.825C257.739 198.499 254.951 196.747 251.334 195.511L250.687 197.404ZM258.066 202.108C259.733 204.013 260.809 206.277 261.291 208.925L263.258 208.567C262.716 205.583 261.488 202.982 259.571 200.791L258.066 202.108ZM261.298 208.96C261.878 211.613 262.17 214.443 262.17 217.45H264.17C264.17 214.313 263.865 211.339 263.251 208.532L261.298 208.96ZM262.17 217.45V227.562H264.17V217.45H262.17ZM262.17 227.562C262.17 231.545 261.507 235.218 260.191 238.59L262.054 239.317C263.468 235.693 264.17 231.771 264.17 227.562H262.17ZM260.186 238.603C258.997 241.773 256.733 244.38 253.315 246.415L254.338 248.133C258.088 245.901 260.688 242.961 262.059 239.305L260.186 238.603ZM253.321 246.411C250.045 248.329 245.175 249.346 238.594 249.346V251.346C245.326 251.346 250.611 250.315 254.332 248.137L253.321 246.411ZM238.594 249.346H229.762V251.346H238.594V249.346ZM229.762 249.346C224.402 249.346 219.386 249.218 214.713 248.963L214.604 250.96C219.318 251.217 224.371 251.346 229.762 251.346V249.346ZM214.714 248.963C210.107 248.707 206.659 248.495 204.364 248.325L204.217 250.319C206.53 250.49 209.994 250.704 214.603 250.96L214.714 248.963ZM203.29 249.322V269.93H205.29V249.322H203.29ZM204.29 268.93H179.33V270.93H204.29V268.93ZM204.29 233.938H230.786V231.938H204.29V233.938ZM230.786 233.938C233.675 233.938 235.982 233.38 237.382 231.981L235.967 230.567C235.148 231.386 233.53 231.938 230.786 231.938V233.938ZM237.382 231.981C238.762 230.6 239.338 228.489 239.338 225.898H237.338C237.338 228.256 236.805 229.729 235.967 230.567L237.382 231.981ZM239.338 225.898V219.37H237.338V225.898H239.338ZM239.338 219.37C239.338 216.795 238.812 214.697 237.537 213.316L236.068 214.672C236.841 215.51 237.338 216.995 237.338 219.37H239.338ZM237.562 213.343C236.238 211.798 233.88 211.202 230.914 211.202V213.202C233.752 213.202 235.319 213.8 236.043 214.645L237.562 213.343ZM230.914 211.202H204.29V213.202H230.914V211.202ZM203.29 212.202V232.938H205.29V212.202H203.29ZM259.089 269.93L258.194 269.484L257.474 270.93H259.089V269.93ZM296.593 194.666V193.666H295.974L295.698 194.22L296.593 194.666ZM329.873 194.666L330.769 194.221L330.493 193.666H329.873V194.666ZM367.249 269.93V270.93H368.863L368.145 269.485L367.249 269.93ZM339.729 269.93L338.82 270.346L339.087 270.93H339.729V269.93ZM333.457 256.234L334.367 255.817L334.099 255.234H333.457V256.234ZM293.009 256.234V255.234H292.399L292.12 255.777L293.009 256.234ZM285.969 269.93V270.93H286.58L286.859 270.387L285.969 269.93ZM300.049 238.57L299.141 238.152L298.489 239.57H300.049V238.57ZM326.289 238.57V239.57H327.844L327.199 238.155L326.289 238.57ZM313.873 211.306L314.783 210.891L314.517 210.306H313.873V211.306ZM312.593 211.306V210.306H311.953L311.685 210.888L312.593 211.306ZM259.984 270.376L297.488 195.112L295.698 194.22L258.194 269.484L259.984 270.376ZM296.593 195.666H329.873V193.666H296.593V195.666ZM328.978 195.111L366.354 270.375L368.145 269.485L330.769 194.221L328.978 195.111ZM367.249 268.93H339.729V270.93H367.249V268.93ZM340.639 269.513L334.367 255.817L332.548 256.65L338.82 270.346L340.639 269.513ZM333.457 255.234H293.009V257.234H333.457V255.234ZM292.12 255.777L285.08 269.473L286.859 270.387L293.899 256.691L292.12 255.777ZM285.969 268.93H259.089V270.93H285.969V268.93ZM300.049 239.57H326.289V237.57H300.049V239.57ZM327.199 238.155L314.783 210.891L312.963 211.72L325.379 238.984L327.199 238.155ZM313.873 210.306H312.593V212.306H313.873V210.306ZM311.685 210.888L299.141 238.152L300.958 238.988L313.502 211.724L311.685 210.888Z" fill="#FCFCFC" mask="url(#path-2-outside-1_827_7)"/>
</svg>
